# xmcd
#
# Track frame offsets:
#	150
#	17682
#	38484
#	51797
#	61669
#	74774
#	85085
#	99521
#	111539
#	123584
#	142176
#	156868
#	170890
#	184332
#	202901
#
# Disc length: 2853
#
# Revision: 1
# Processed by: cddbd v1.5.1PL0 Copyright (c) Steve Scherf et al.
# Submitted via: CDex 1.50
# Normalized: r0:TDELIM( - )
#
DISCID=d90b230f
DTITLE=sampler von oli - cool country
DYEAR=2000
DGENRE=rockabilly
TTITLE0=union avenue - i shot the sheriff
TTITLE1=union avenue - the other side
TTITLE2=union avenue - bad moon rising
TTITLE3=union avenue - ace of spades
TTITLE4=union avenue - it's all over now
TTITLE5=union avenue - big river
TTITLE6=al gringo and the original psycobilly krautboys - smoke on the water
TTITLE7=al gringo and the original psycobilly krautboys - stand by me
TTITLE8=al gringo and the original psycobilly krautboys - la isla bonita
TTITLE9=al gringo and the original psycobilly krautboys - geronimo's cadillac
TTITLE10=al gringo and the original psycobilly krautboys - paranoid
TTITLE11=al gringo and the original psycobilly krautboys - summer of '69
TTITLE12=al gringo and the original psycobilly krautboys - kiss
TTITLE13=al gringo and the original psycobilly krautboys - don't worry be happy
TTITLE14=al gringo and the original psycobilly krautboys - diana
EXTD=YEAR: 2000
EXTT0=
EXTT1=
EXTT2=
EXTT3=
EXTT4=
EXTT5=
EXTT6=
EXTT7=
EXTT8=
EXTT9=
EXTT10=
EXTT11=
EXTT12=
EXTT13=
EXTT14=
PLAYORDER=
